<svg width="96" height="96" viewBox="0 0 487 422" fill="none" xmlns="http://www.w3.org/2000/svg">
<path d="M103.92 85.92C98.928 85.92 95.856 86.88 94.704 88.8C93.744 90.72 93.264 94.464 93.264 100.032V133.44C93.264 139.584 92.976 143.808 92.4 146.112C91.824 148.224 90.288 149.28 87.792 149.28C86.256 149.28 85.008 148.608 84.048 147.264C83.088 145.92 82.608 142.368 82.608 136.608C82.608 133.536 82.608 129.6 82.608 124.8C82.8 119.808 82.896 115.68 82.896 112.416C82.896 109.344 82.8 105.312 82.608 100.32C82.608 95.328 82.608 91.2 82.608 87.936C82.608 82.368 83.28 78.912 84.624 77.568C85.968 76.224 88.944 75.552 93.552 75.552C100.08 75.552 106.224 75.648 111.984 75.84C117.936 75.84 123.792 75.84 129.552 75.84C135.312 75.84 141.072 75.936 146.832 76.128C152.784 76.128 159.024 76.128 165.552 76.128C172.08 76.128 178.224 76.128 183.984 76.128C189.936 75.936 195.792 75.84 201.552 75.84C207.312 75.84 213.072 75.84 218.832 75.84C224.784 75.648 231.024 75.552 237.552 75.552C242.16 75.552 245.136 76.224 246.48 77.568C247.824 78.912 248.496 82.368 248.496 87.936C248.496 91.2 248.4 95.328 248.208 100.32C248.208 105.312 248.208 109.344 248.208 112.416C248.208 115.68 248.208 119.808 248.208 124.8C248.4 129.6 248.496 133.536 248.496 136.608C248.496 142.368 248.016 145.92 247.056 147.264C246.096 148.608 244.848 149.28 243.312 149.28C240.816 149.28 239.28 148.224 238.704 146.112C238.128 143.808 237.84 139.584 237.84 133.44V100.032C237.84 94.464 237.264 90.72 236.112 88.8C235.152 86.88 232.176 85.92 227.184 85.92H171.024V303.072H198.672C200.784 303.072 202.704 303.552 204.432 304.512C206.352 305.472 207.312 306.72 207.312 308.256C207.312 310.752 205.392 312 201.552 312H140.496C137.808 312 135.12 311.808 132.432 311.424C129.936 310.848 128.688 309.792 128.688 308.256C128.688 306.528 129.648 305.376 131.568 304.8C133.488 304.224 135.312 303.936 137.04 303.936C138.96 303.936 141.072 303.936 143.376 303.936C145.872 303.744 148.176 303.264 150.288 302.496C152.592 301.536 154.416 300.192 155.76 298.464C157.296 296.544 158.064 293.952 158.064 290.688C158.064 274.944 158.256 259.584 158.64 244.608C159.024 229.44 159.216 213.408 159.216 196.512C159.216 188.256 159.12 179.424 158.928 170.016C158.928 160.416 158.832 150.816 158.64 141.216C158.448 131.616 158.256 122.112 158.064 112.704C158.064 103.296 158.064 94.368 158.064 85.92H103.92Z" fill="#1611E9"/>
<path d="M389.384 208.656C389.384 200.4 387.848 193.296 384.776 187.344C381.896 181.392 378.056 176.304 373.256 172.08C368.456 167.664 362.984 164.112 356.84 161.424C350.888 158.736 344.84 156.72 338.696 155.376C332.552 153.84 326.6 152.784 320.84 152.208C315.272 151.632 310.472 151.344 306.44 151.344C303.752 151.344 301.16 151.44 298.664 151.632C296.168 151.824 293.96 152.112 292.04 152.496C289.736 152.88 287.624 153.168 285.704 153.36V265.68C285.896 265.68 286.568 265.776 287.72 265.968C288.872 265.968 290.12 265.968 291.464 265.968C293 265.968 294.344 266.064 295.496 266.256C296.84 266.256 297.608 266.256 297.8 266.256C307.4 266.256 317.576 265.488 328.328 263.952C339.08 262.416 348.968 259.536 357.992 255.312C367.016 251.088 374.504 245.232 380.456 237.744C386.408 230.256 389.384 220.56 389.384 208.656ZM287.72 276.624C286.952 276.624 286.28 276.528 285.704 276.336V369.072H307.304C310.952 369.072 314.024 369.456 316.52 370.224C319.016 370.8 320.264 372.24 320.264 374.544C320.264 375.504 320.072 376.176 319.688 376.56C319.304 376.944 318.44 377.328 317.096 377.712C315.752 377.904 313.736 378 311.048 378C308.552 378 305.192 378 300.968 378H251.432C245.864 378 242.408 377.616 241.064 376.848C239.72 375.888 239.048 374.928 239.048 373.968C239.048 372.816 239.912 371.856 241.64 371.088C243.56 370.32 247.688 369.936 254.024 369.936C256.52 369.936 258.92 369.84 261.224 369.648C263.528 369.264 265.544 368.592 267.272 367.632C269.192 366.48 270.632 365.04 271.592 363.312C272.744 361.392 273.32 358.896 273.32 355.824C273.32 339.696 273.416 323.664 273.608 307.728C273.8 291.792 273.896 275.664 273.896 259.344C273.896 243.024 273.608 226.992 273.032 211.248C272.456 195.312 272.168 179.184 272.168 162.864C272.168 159.792 271.688 157.488 270.728 155.952C269.768 154.224 268.328 152.976 266.408 152.208C264.488 151.44 262.088 151.056 259.208 151.056C256.328 150.864 252.968 150.768 249.128 150.768C247.592 150.768 245.672 150.576 243.368 150.192C241.064 149.808 239.912 148.464 239.912 146.16C239.912 145.2 240.2 144.528 240.776 144.144C241.544 143.568 242.408 143.184 243.368 142.992C244.328 142.608 245.288 142.416 246.248 142.416C247.208 142.416 247.88 142.416 248.264 142.416C255.944 142.416 262.184 142.416 266.984 142.416C271.784 142.224 276.392 142.128 280.808 142.128C285.416 141.936 290.408 141.84 295.784 141.84C301.16 141.648 308.168 141.552 316.808 141.552C325.64 141.552 335.048 142.704 345.032 145.008C355.016 147.312 364.232 151.056 372.68 156.24C381.128 161.232 388.136 167.952 393.704 176.4C399.464 184.656 402.344 194.832 402.344 206.928C402.344 219.792 399.656 230.736 394.28 239.76C389.096 248.592 382.184 255.792 373.544 261.36C365.096 266.736 355.4 270.672 344.456 273.168C333.512 275.472 322.28 276.624 310.76 276.624C319.4 290.064 328.136 303.312 336.968 316.368C340.616 321.936 344.552 327.696 348.776 333.648C353 339.6 357.224 345.456 361.448 351.216C365.864 356.976 370.184 362.544 374.408 367.92C378.632 373.104 382.76 377.808 386.792 382.032H414.44C418.856 382.032 422.12 382.224 424.232 382.608C426.536 382.992 427.688 384.144 427.688 386.064C427.688 387.216 427.112 388.08 425.96 388.656C425 389.424 422.792 389.904 419.336 390.096C416.072 390.48 411.368 390.672 405.224 390.672C399.08 390.672 391.016 390.672 381.032 390.672C379.304 390.672 376.616 388.752 372.968 384.912C369.512 381.072 365.384 375.984 360.584 369.648C355.784 363.312 350.6 356.112 345.032 348.048C339.464 339.984 333.704 331.728 327.752 323.28C321.992 314.832 316.232 306.576 310.472 298.512C304.712 290.256 299.336 282.96 294.344 276.624H287.72Z" fill="#131212"/>
</svg>
